<?xml version="1.0" encoding="UTF-8" standalone="no"?>
<!-- Created with Inkscape (http://www.inkscape.org/) -->

<svg
   xmlns:dc="http://purl.org/dc/elements/1.1/"
   xmlns:cc="http://creativecommons.org/ns#"
   xmlns:rdf="http://www.w3.org/1999/02/22-rdf-syntax-ns#"
   xmlns:svg="http://www.w3.org/2000/svg"
   xmlns="http://www.w3.org/2000/svg"
   xmlns:xlink="http://www.w3.org/1999/xlink"
   xmlns:sodipodi="http://sodipodi.sourceforge.net/DTD/sodipodi-0.dtd"
   xmlns:inkscape="http://www.inkscape.org/namespaces/inkscape"
   width="84.666664mm"
   height="84.666664mm"
   viewBox="0 0 299.99999 299.99999"
   id="svg4559"
   version="1.1"
   inkscape:version="0.92.5 (2060ec1f9f, 2020-04-08)"
   sodipodi:docname="logo.svg">
  <defs
     id="defs4561">
    <linearGradient
       inkscape:collect="always"
       xlink:href="#linearGradient4460"
       id="linearGradient4310-0"
       gradientUnits="userSpaceOnUse"
       gradientTransform="matrix(2.3126208,0,0,2.3286908,-134.99896,-563.04209)"
       x1="206.64488"
       y1="372.88699"
       x2="201.00249"
       y2="550.46826" />
    <linearGradient
       id="linearGradient4460"
       inkscape:collect="always">
      <stop
         id="stop4462"
         offset="0"
         style="stop-color:#dedede;stop-opacity:1" />
      <stop
         id="stop4464"
         offset="1"
         style="stop-color:#000000;stop-opacity:1" />
    </linearGradient>
    <linearGradient
       inkscape:collect="always"
       xlink:href="#linearGradient4460"
       id="linearGradient4189"
       gradientUnits="userSpaceOnUse"
       gradientTransform="matrix(2.3126208,0,0,-2.3286908,-134.99766,1487.8881)"
       x1="247.25906"
       y1="235.66031"
       x2="168.39557"
       y2="651.83722" />
  </defs>
  <sodipodi:namedview
     id="base"
     pagecolor="#ffffff"
     bordercolor="#666666"
     borderopacity="1.0"
     inkscape:pageopacity="0.0"
     inkscape:pageshadow="2"
     inkscape:zoom="0.35"
     inkscape:cx="-112.63123"
     inkscape:cy="44.348541"
     inkscape:document-units="px"
     inkscape:current-layer="layer1"
     showgrid="false"
     inkscape:window-width="1600"
     inkscape:window-height="811"
     inkscape:window-x="-9"
     inkscape:window-y="-9"
     inkscape:window-maximized="1"
     inkscape:snap-nodes="false"
     fit-margin-top="0"
     fit-margin-left="0"
     fit-margin-right="0"
     fit-margin-bottom="0" />
  <metadata
     id="metadata4564">
    <rdf:RDF>
      <cc:Work
         rdf:about="">
        <dc:format>image/svg+xml</dc:format>
        <dc:type
           rdf:resource="http://purl.org/dc/dcmitype/StillImage" />
        <dc:title></dc:title>
      </cc:Work>
    </rdf:RDF>
  </metadata>
  <g
     inkscape:label="Capa 1"
     inkscape:groupmode="layer"
     id="layer1"
     transform="translate(-154.41332,-132.43109)">
    <g
       id="g25"
       transform="translate(-81.026786,-158.03572)">
      <ellipse
         style="fill:#ffffff;stroke-width:1.00057876"
         ry="122.20982"
         rx="121.54018"
         cy="440.64343"
         cx="384.70984"
         id="path18" />
      <g
         transform="matrix(0.4540295,0,0,0.45089607,230.29461,231.96197)"
         id="g4175">
        <path
           style="opacity:1;fill:url(#linearGradient4310-0);fill-opacity:1;fill-rule:evenodd;stroke:none;stroke-width:1px;stroke-linecap:butt;stroke-linejoin:miter;stroke-opacity:1"
           d="m 329.31735,129.75238 -47.90039,2.49414 15.69141,8.31836 -0.82618,32.43359 c -1.65191,6.65339 -18.17187,4.16016 -18.17187,4.16016 l -52.86133,-28.27539 -46.25195,18.29297 21.47851,0.83203 c 8.91192,11.42135 6.70875,42.08792 6.6211,43.26758 l -61.13477,-17.48438 -37.99219,37.42383 25.60157,-2.49219 c 0,0 11.56456,8.31396 12.39062,20.78907 0.82584,12.47516 -9.91015,16.63281 -9.91015,16.63281 l -63.597664,7.48632 -25.60547,39.91992 25.60547,-4.15625 c 0,0 10.73841,2.49717 18.17187,14.14062 7.43346,11.64346 -7.43555,19.95704 -7.43555,19.95704 l -59.46875,26.61523 -9.91015,48.23437 13.21679,-13.30273 31.38282,5.82031 c 9.08536,7.48509 0,19.95899 0,19.95899 l -47.07813,44.08007 2.47852,48.23438 8.25781,-15.80078 32.21289,0.83398 c 6.60739,1.66336 4.12891,18.29688 4.12891,18.29688 l -28.08008,53.22656 18.16992,46.57422 0.82617,-21.62695 c 11.33994,-8.97192 41.78033,-6.76117 42.96485,-6.67188 l -17.36328,61.56445 37.169924,38.25586 -2.48047,-25.77929 c 0,0 8.26341,-11.6449 20.65235,-12.47657 12.38918,-0.83167 16.51757,9.97852 16.51757,9.97852 l 7.4336,64.03906 39.64453,25.78516 -4.13281,-25.78516 c 0,0 2.48009,-10.81178 14.04296,-18.29687 11.56311,-7.48506 19.82422,7.48633 19.82422,7.48633 l 26.42774,59.88281 47.90625,9.97851 -13.2168,-13.30859 5.78125,-31.60156 c 7.43346,-9.14842 19.82422,0 19.82422,0 l 43.77348,47.40625 47.9062,-2.4961 -15.6973,-8.31836 0.8282,-32.43359 c 1.6519,-6.6534 18.1699,-4.1582 18.1699,-4.1582 l 52.8613,28.27734 46.252,-18.29883 -21.4727,-0.83203 c -8.9101,-11.41878 -6.7155,-42.06899 -6.6269,-43.26172 l 61.1367,17.48243 37.9941,-37.42579 -25.6055,2.4961 c 0,0 -11.5628,-8.31979 -12.3886,-20.79492 -0.8261,-12.47514 9.914,-16.63282 9.914,-16.63282 l 63.5977,-7.48633 25.5996,-39.91992 -25.5996,4.15821 c 0,0 -10.7387,-2.49327 -18.1719,-14.13672 -7.4334,-11.64345 7.4297,-19.96289 7.4297,-19.96289 l 59.4688,-26.61133 9.9101,-48.23828 -13.2129,13.30859 -31.3867,-5.82226 c -9.0854,-7.48508 0,-19.96094 0,-19.96094 l 47.0801,-44.07813 -2.4805,-48.23828 -8.2578,15.80078 -32.2129,-0.82812 c -6.6074,-1.66337 -4.1289,-18.29688 -4.1289,-18.29688 l 28.082,-53.22851 -18.1718,-46.57422 -0.8223,21.62305 c -11.3425,8.97391 -41.7972,6.76019 -42.9688,6.67187 l 17.3633,-61.56054 -37.1699,-38.25976 2.4805,25.78515 c 0,0 -8.2576,11.64294 -20.6465,12.47461 -12.3892,0.83167 -16.5235,-9.98242 -16.5235,-9.98242 l -7.4296,-64.03906 -39.6446,-25.7793 4.1289,25.7793 c 0,0 -2.4798,10.81178 -14.0429,18.29687 -11.5631,7.48506 -19.8203,-7.48632 -19.8203,-7.48632 l -26.4317,-59.87696 -47.9023,-9.98242 13.2129,13.30664 -5.7813,31.60547 c -7.4334,9.14842 -19.8203,0 -19.8203,0 z m 12.39064,74.01758 A 259.34277,258.65332 0 0 1 601.04979,462.42425 259.34277,258.65332 0 0 1 341.70799,721.07659 259.34277,258.65332 0 0 1 82.364216,462.42425 259.34277,258.65332 0 0 1 341.70799,203.76996 Z"
           id="path4300-0"
           inkscape:connector-curvature="0" />
        <path
           style="opacity:1;fill:#2121cd;fill-opacity:1;fill-rule:nonzero;stroke:none;stroke-width:20;stroke-linecap:butt;stroke-linejoin:round;stroke-miterlimit:4;stroke-dasharray:none;stroke-opacity:1"
           d="M 341.70895,203.76995 A 259.34391,258.65101 0 0 0 82.365202,462.42229 259.34391,258.65101 0 0 0 341.70895,721.07659 259.34391,258.65101 0 0 0 601.05075,462.42229 259.34391,258.65101 0 0 0 341.70895,203.76995 Z m 179.98633,117.16211 1.57226,5.9082 c -1.52796,0.47168 -3.36505,1.23387 -5.50585,2.28711 -2.08551,1.03839 -3.62641,1.89837 -4.625,2.58398 -1.69609,1.1711 -2.66616,2.62577 -2.91407,4.35742 -0.19195,1.71682 -0.0493,3.48964 0.4375,5.32032 l 22.65625,85.125 c 0.51666,1.94162 1.25466,3.50008 2.21485,4.66797 1.01548,1.15302 2.59349,1.97559 4.73242,2.46875 1.06936,0.2466 2.85563,0.29994 5.35742,0.16015 2.55683,-0.15486 4.52991,-0.3948 5.92187,-0.71093 l 1.57227,5.9082 -48.67383,13.13476 -1.57226,-5.90625 c 1.29253,-0.46772 3.15015,-1.14825 5.57031,-2.03906 2.47519,-0.90566 4.12296,-1.70974 4.94141,-2.40625 1.47568,-1.11162 2.41896,-2.4351 2.83593,-3.97461 0.4024,-1.59496 0.31389,-3.47125 -0.26172,-5.63476 l -11.17968,-42.02539 -55.11914,14.87304 10.93554,41.10547 c 0.51664,1.94162 1.25636,3.50009 2.2168,4.66797 1.01547,1.15304 2.59152,1.9756 4.73047,2.46875 1.06935,0.2466 2.85369,0.29999 5.35547,0.16017 2.55707,-0.15486 4.53576,-0.3948 5.92773,-0.71094 l 1.57031,5.9082 -48.67187,13.13672 -1.57227,-5.9082 c 1.29275,-0.4677 3.14844,-1.14826 5.56836,-2.03907 2.4752,-0.90566 4.11906,-1.70974 4.9375,-2.40624 1.47568,-1.11163 2.42483,-2.43508 2.8418,-3.97461 0.4024,-1.59497 0.31217,-3.47123 -0.26367,-5.63477 l -22.67383,-85.21095 c -0.47247,-1.77517 -1.25731,-3.28994 -2.35742,-4.53906 -1.11468,-1.3046 -2.6642,-2.13182 -4.64844,-2.48827 -1.67942,-0.31985 -3.66474,-0.47028 -5.96094,-0.44531 -2.24093,0.009 -4.15053,0.16732 -5.72265,0.47264 l -1.57227,-5.9082 48.67383,-13.13086 1.57617,5.90821 c -1.52795,0.47167 -3.36529,1.23387 -5.50586,2.2871 -2.08552,1.03839 -3.62836,1.89838 -4.62695,2.58399 -1.69607,1.17111 -2.6642,2.62576 -2.91211,4.35742 -0.19194,1.71683 -0.0492,3.49158 0.4375,5.32226 l 9.74219,36.61329 55.125,-14.87305 -9.52149,-35.78125 c -0.47223,-1.77521 -1.26317,-3.28993 -2.36328,-4.53906 -1.11469,-1.30458 -2.66225,-2.13181 -4.64648,-2.48829 -1.67942,-0.31983 -3.66647,-0.47026 -5.96289,-0.44531 -2.24093,0.009 -4.14662,0.16732 -5.71875,0.47266 l -1.57618,-5.9082 z m -137.42969,37.07812 1.57227,5.9082 c -1.52795,0.47168 -3.44409,1.25761 -5.75,2.35548 -2.25087,1.08297 -3.87446,1.96478 -4.87305,2.65039 -1.69585,1.1711 -2.67006,2.62575 -2.91797,4.35743 -0.24767,1.73169 -0.12502,3.51307 0.36133,5.34375 l 22.65234,85.125 c 0.51664,1.94164 1.28358,3.49149 2.29883,4.64453 1.01547,1.15303 2.58958,1.97169 4.72852,2.46484 1.1392,0.28719 3.04184,0.33884 5.70898,0.15429 2.65235,-0.23997 4.73211,-0.53111 6.23438,-0.87696 l 1.57031,5.90821 -51.8125,13.98048 -1.57031,-5.90821 c 1.85843,-0.56086 4.1999,-1.40279 7.03125,-2.52344 2.88638,-1.13555 4.79693,-2.15499 5.73632,-3.0625 1.42735,-1.51481 2.35234,-3.04451 2.76954,-4.58399 0.4572,-1.60985 0.41045,-3.44155 -0.13672,-5.49414 l -22.84961,-85.875 -1.23828,0.33594 -13.22461,111.39648 -4.13282,1.11328 -65.42382,-92.40625 -1.07422,0.29102 18.75781,70.48047 c 1.81564,6.82343 3.60962,11.89912 5.38086,15.22656 1.82628,3.31257 3.82555,5.50831 6.00195,6.58594 1.52194,0.83797 4.32424,1.2724 8.40625,1.30078 4.08177,0.0284 6.71101,-0.089 7.88281,-0.3457 l 1.57032,5.9082 -47.35352,12.77539 -1.57226,-5.9082 c 2.42016,-0.89082 4.89837,-2.0032 7.43554,-3.3418 2.59222,-1.35346 4.46808,-2.8411 5.63086,-4.46289 1.51477,-2.07355 2.20437,-4.81574 2.06446,-8.22656 -0.13876,-3.41079 -1.21313,-8.889 -3.22071,-16.4336 L 264.8359,416.45354 c -0.92992,-3.49491 -2.10672,-6.23639 -3.52343,-8.23242 -1.41694,-1.99604 -3.08035,-3.48246 -4.99219,-4.45313 -2.10634,-1.03703 -4.49689,-1.58056 -7.16797,-1.63281 -2.67108,-0.0522 -5.22818,0.19524 -7.68164,0.73828 l -1.57227,-5.9082 39.9961,-10.79297 57.11133,79.48438 8.96484,-81.79493 c 0.3233,-3.0007 0.45481,-6.06775 0.38867,-9.20117 -0.0254,-3.20377 -0.14432,-5.31275 -0.35547,-6.32617 z m -202.16406,52.76367 66.19336,91.30469 c 1.40191,1.94058 2.79995,3.4354 4.20117,4.48438 1.40098,1.04896 3.21307,1.95797 5.42578,2.72851 1.47361,0.43477 3.30021,0.65541 5.48633,0.66016 2.17132,-0.0507 3.95155,-0.23465 5.34375,-0.55077 l 1.57227,5.9082 -48.83594,13.17773 -1.57227,-5.9082 c 4.22331,-1.4368 7.62851,-2.94884 10.2168,-4.53906 2.64356,-1.60507 3.80343,-3.0198 3.47851,-4.24024 -0.13413,-0.49927 -0.35203,-1.09568 -0.65429,-1.78711 -0.30202,-0.69146 -0.63573,-1.284 -1.00391,-1.77929 l -16.79297,-23.82813 -41.07226,11.08008 c -0.50924,4.29945 -0.87771,8.02741 -1.10157,11.17969 -0.16882,3.1374 -0.31194,6.02873 -0.43359,8.67773 -0.0809,2.57868 -0.0602,4.65441 0.0625,6.22656 0.12257,1.57214 0.3094,2.82842 0.56055,3.77149 0.59041,2.21901 2.7807,3.47188 6.57617,3.75586 3.79547,0.28398 7.90119,-0.0516 12.3125,-1.00391 l 1.57227,5.90821 -44.12891,11.90625 -1.57227,-5.90821 c 1.40283,-0.49744 3.11128,-1.28626 5.12696,-2.36523 2.00088,-1.13447 3.57357,-2.32868 4.71484,-3.58789 1.80502,-2.0924 3.10102,-4.10912 3.88477,-6.04492 0.76918,-1.99128 1.34515,-4.58437 1.73437,-7.78125 1.95349,-16.40233 4.02951,-34.79872 6.2207,-55.18946 2.19122,-20.39071 4.14887,-38.54783 5.875,-54.47265 l 6.60938,-1.78321 z m -1.83399,28.05274 -5.25781,50.47265 35.20508,-9.49804 z m 363.01954,26.26953 c 0.47257,0.0364 0.92212,0.16012 1.34765,0.37305 0.86456,0.4222 1.41562,1.08155 1.6543,1.97851 0.2423,0.91055 0.10301,1.74323 -0.41992,2.49609 -0.50944,0.74923 -1.31108,1.27145 -2.4043,1.56641 -1.07972,0.29132 -2.02663,0.24002 -2.83984,-0.15234 -0.81322,-0.39236 -1.34169,-1.04453 -1.58399,-1.95508 -0.2423,-0.91055 -0.10555,-1.75511 0.41016,-2.53516 0.52558,-0.79728 1.30842,-1.33679 2.34765,-1.61718 0.51962,-0.1402 1.01571,-0.19066 1.48829,-0.1543 z m 23.45507,4.33789 c 1.25268,0.0189 2.34328,0.26079 3.26954,0.72461 1.85251,0.92764 3.15404,2.80408 3.90624,5.63086 l 2.79883,10.51953 c 0.10126,0.38053 0.2441,0.64693 0.42969,0.80078 0.18198,0.14026 0.41579,0.17218 0.69922,0.0957 0.18895,-0.051 0.43284,-0.19501 0.73047,-0.43554 0.31113,-0.24418 0.52697,-0.38325 0.64844,-0.41602 0.16195,-0.0437 0.32312,-0.007 0.48437,0.10938 0.17113,0.0995 0.28111,0.23738 0.32813,0.41406 0.15912,0.59797 -0.17738,1.34365 -1.00977,2.23828 -0.83239,0.89463 -1.81551,1.49489 -2.94922,1.80078 -1.03923,0.2804 -1.96734,0.24638 -2.7832,-0.10156 -0.81587,-0.34795 -1.57241,-1.03824 -2.26758,-2.07422 -0.92079,1.48655 -1.92135,2.69591 -3.00391,3.62891 -1.07267,0.91576 -2.22299,1.53971 -3.45117,1.87109 -1.68706,0.45519 -3.21621,0.30618 -4.58789,-0.44531 -1.37168,-0.75149 -2.27277,-1.93549 -2.70312,-3.55274 -0.60756,-2.28317 -0.0352,-4.34558 1.71679,-6.1875 1.76552,-1.84556 4.76176,-3.52035 8.99024,-5.02539 l -0.79688,-2.99804 c -0.50267,-1.88905 -1.13756,-3.10216 -1.90234,-3.63868 -0.7684,-0.55011 -1.8682,-0.63209 -3.29883,-0.24609 -0.63434,0.17115 -1.15999,0.4226 -1.57812,0.75391 -0.42175,0.31771 -0.60279,0.58529 -0.54493,0.80273 0.007,0.0272 0.0684,0.0988 0.18555,0.21289 0.0586,0.057 0.0984,0.0976 0.11914,0.1211 l 0.83203,0.75781 c 0.1721,0.15749 0.32923,0.36953 0.47266,0.63672 0.15331,0.24995 0.2678,0.51733 0.34375,0.80273 0.21698,0.81542 0.0936,1.57768 -0.36914,2.28516 -0.46631,0.69389 -1.1845,1.1714 -2.15625,1.43359 -0.99874,0.26947 -1.88548,0.20406 -2.6582,-0.19922 -0.77273,-0.40328 -1.28144,-1.06805 -1.52735,-1.99219 -0.41227,-1.54929 0.0642,-3.04783 1.42969,-4.49414 1.36546,-1.4463 3.35025,-2.51984 5.95508,-3.22265 1.57909,-0.42606 2.99537,-0.63021 4.24804,-0.61133 z m -18.58007,4.47852 4.67578,17.57226 c 0.28931,1.08722 0.62479,1.77594 1.00586,2.06641 0.39456,0.28682 1.03543,0.38452 1.92187,0.29101 l 0.50977,1.91603 -10.87305,2.93164 -0.50977,-1.91602 c 0.82762,-0.36897 1.3357,-0.77535 1.52149,-1.21875 0.19928,-0.44705 0.15259,-1.21355 -0.13672,-2.30078 l -3.30859,-12.43555 c -0.27123,-1.01927 -0.6025,-1.64227 -0.9961,-1.87109 -0.3801,-0.23246 -1.04002,-0.23775 -1.97851,-0.0137 l -0.52149,-1.95703 c 1.35856,-0.43939 2.76697,-0.91259 4.22266,-1.42188 1.45568,-0.50929 2.9446,-1.05708 4.4668,-1.64257 z m -12.39454,4.02148 c 0.57025,0.0501 1.10908,0.21114 1.61524,0.48242 1.02219,0.52534 1.68675,1.36436 1.99414,2.51953 0.26399,0.99209 0.16709,1.87913 -0.29102,2.65821 -0.44822,0.76184 -1.16514,1.27518 -2.15039,1.54101 -0.78279,0.21121 -1.49463,0.16982 -2.13672,-0.12305 -0.6322,-0.31009 -1.03539,-0.79102 -1.20898,-1.44335 -0.0181,-0.0679 -0.0309,-0.14529 -0.0391,-0.23046 -0.0118,-0.0988 -0.0195,-0.20626 -0.0215,-0.32227 l -0.0312,-0.92969 c 0.003,-0.0444 -0.003,-0.0941 -0.0176,-0.14844 -9.6e-4,-0.058 -0.0115,-0.12745 -0.0332,-0.20899 -0.0506,-0.19026 -0.15233,-0.32444 -0.30273,-0.40039 -0.1504,-0.076 -0.33892,-0.0834 -0.56836,-0.0215 -0.82329,0.22213 -1.37715,1.23858 -1.66211,3.04882 -0.27147,1.80661 -0.0874,3.91288 0.55273,6.31836 l 1.63282,6.13672 c 0.28931,1.08723 0.66014,1.80264 1.11328,2.14649 0.45313,0.34385 1.07675,0.40821 1.87304,0.19336 l 1.03321,-0.2793 0.50976,1.91602 -11.82226,3.1914 -0.50977,-1.91601 c 0.82761,-0.36896 1.33375,-0.77534 1.51953,-1.21875 0.19928,-0.44706 0.15455,-1.21552 -0.13476,-2.30274 l -3.3086,-12.43359 c -0.28207,-1.06005 -0.60955,-1.69316 -0.98242,-1.89844 -0.36299,-0.22251 -1.02865,-0.21769 -1.99414,0.0137 l -0.51953,-1.95703 c 1.55378,-0.52119 2.98379,-1.0171 4.29101,-1.48633 1.30723,-0.46923 2.55,-0.93675 3.72852,-1.40039 l 1.3457,5.05664 c 0.3192,-1.79034 0.86738,-3.20561 1.64649,-4.24609 0.77911,-1.04048 1.80359,-1.73192 3.07226,-2.07422 0.63434,-0.17115 1.2364,-0.23171 1.80664,-0.18164 z m 32.69336,2.86914 c -2.06276,0.89158 -3.51162,1.89281 -4.34375,3.00586 -0.83574,1.09945 -1.07481,2.32253 -0.71679,3.66798 0.24591,0.92414 0.69765,1.581 1.35156,1.97264 0.65391,0.39166 1.43167,0.46664 2.33594,0.22267 1.21468,-0.32774 1.98529,-1.04639 2.3125,-2.1543 0.32358,-1.12149 0.21881,-2.68785 -0.31641,-4.69922 -0.0615,-0.23103 -0.13488,-0.47988 -0.2207,-0.74804 -0.0723,-0.27182 -0.20635,-0.69412 -0.40235,-1.26759 z m -81.32226,1.07423 2.28906,8.60351 4.85938,-1.31054 0.50976,1.91601 -4.85937,1.31054 3.35937,12.61915 c 0.37972,1.42698 0.77305,2.4409 1.17969,3.04491 0.41652,0.5868 0.87367,0.81444 1.37305,0.67969 0.56685,-0.15294 0.90759,-0.71922 1.02343,-1.69727 0.12934,-0.98169 0.0253,-2.35258 -0.3125,-4.11131 l 1.95899,-0.54883 0.0801,0.30468 c 0.74497,2.7996 0.75182,5.10746 0.0195,6.92188 -0.73229,1.81441 -2.15041,3.00419 -4.25586,3.57226 -1.93,0.52073 -3.4694,0.31018 -4.61719,-0.63282 -1.1343,-0.94663 -2.06861,-2.79976 -2.80273,-5.55859 l -3.42188,-12.86328 -2.49023,0.67187 -0.50977,-1.916 c 1.58651,-0.99615 2.73446,-2.33225 3.44531,-4.00978 0.70724,-1.69112 1.02218,-3.82251 0.94532,-6.39452 l 2.22656,-0.60156 z m 23.27539,2.66797 c 1.70748,0.0377 3.29162,0.5258 4.75195,1.46093 2.35002,1.49258 3.96302,3.88897 4.8418,7.19141 l 0.0762,0.28516 -13.05664,3.52343 c 0.0371,0.19391 0.079,0.40791 0.12695,0.64258 l 0.25391,0.95899 c 0.73051,2.74524 1.64898,4.66879 2.75195,5.76953 1.09936,1.08715 2.45056,1.41381 4.05664,0.98047 1.24168,-0.33502 2.29323,-1.06327 3.15235,-2.1836 0.8555,-1.13391 1.46736,-2.58129 1.83789,-4.34179 l 2.1289,0.16797 c -0.27889,2.37668 -1.08603,4.32141 -2.41992,5.83203 -1.33389,1.51061 -3.18907,2.58565 -5.56445,3.22656 -1.39014,0.37507 -2.75669,0.48183 -4.10156,0.32031 -1.34488,-0.16151 -2.61178,-0.56896 -3.79883,-1.22461 -1.39603,-0.78862 -2.57791,-1.83922 -3.54883,-3.15039 -0.97454,-1.32476 -1.6956,-2.86404 -2.16211,-4.61719 -0.91133,-3.42475 -0.67467,-6.4751 0.71094,-9.15039 1.3991,-2.67892 3.65166,-4.43589 6.75586,-5.27343 1.11346,-0.30043 2.18254,-0.44061 3.20703,-0.41797 z m -1.95313,2.24023 c -0.25742,-0.002 -0.52463,0.0338 -0.80468,0.10938 -1.09322,0.29496 -1.73548,1.03711 -1.92579,2.22461 -0.18042,1.17025 0.0686,3.1646 0.7461,5.98242 l 6.25586,-1.68946 -0.10352,-0.38672 c -0.66903,-2.51421 -1.3883,-4.23512 -2.15625,-5.16407 -0.56855,-0.70963 -1.23946,-1.06876 -2.01172,-1.07617 z m -62.91601,4.68164 c 0.47257,0.0364 0.92212,0.16013 1.34765,0.37305 0.86456,0.4222 1.41562,1.08156 1.6543,1.97851 0.2423,0.91055 0.10302,1.74323 -0.41992,2.4961 -0.50944,0.74922 -1.31108,1.27144 -2.4043,1.5664 -1.07972,0.29133 -2.02662,0.24002 -2.83984,-0.15234 -0.81322,-0.39236 -1.33974,-1.04257 -1.58203,-1.95312 -0.2423,-0.91055 -0.10555,-1.75706 0.41015,-2.53711 0.52559,-0.79728 1.30648,-1.33484 2.34571,-1.61524 0.51961,-0.1402 1.01571,-0.19261 1.48828,-0.15625 z m 27.22656,3.47852 c 1.08457,0.0624 2.01742,0.45988 2.80078,1.19531 1.26326,1.15946 2.32709,3.36325 3.19141,6.61133 l 2.16406,8.13476 c 0.28208,1.06005 0.6233,1.7406 1.02149,2.04102 0.39818,0.30042 1.03933,0.40406 1.92578,0.31055 l 0.50976,1.91601 -10.78906,2.91016 -0.50977,-1.91602 c 0.82497,-0.32454 1.34162,-0.71931 1.55079,-1.18359 0.20916,-0.46428 0.16597,-1.24684 -0.12696,-2.34766 l -2.49414,-9.37695 c -0.44481,-1.67161 -0.91782,-2.76658 -1.41797,-3.28711 -0.50015,-0.52052 -1.16109,-0.67135 -1.98437,-0.44922 -1.21469,0.32774 -2.01612,1.207 -2.40235,2.63672 -0.37634,1.41249 -0.27617,3.20047 0.29883,5.36133 l 1.80664,6.78711 c 0.29293,1.10081 0.64496,1.79893 1.05664,2.0957 0.41168,0.29677 1.0541,0.37842 1.92969,0.24414 l 0.50977,1.91602 -10.78907,2.91211 -0.50976,-1.91602 c 0.82761,-0.36896 1.33374,-0.77534 1.51953,-1.21875 0.19928,-0.44705 0.15454,-1.21356 -0.13477,-2.30078 l -3.30859,-12.43555 c -0.26761,-1.00568 -0.59859,-1.62274 -0.99219,-1.85156 -0.39359,-0.22882 -1.05576,-0.24005 -1.98437,-0.0332 l -0.51953,-1.95703 c 1.55377,-0.52119 2.98379,-1.0171 4.29101,-1.48633 1.30723,-0.46923 2.55,-0.9348 3.72852,-1.39844 l 1.32422,4.97461 c 0.66745,-1.84061 1.51943,-3.31017 2.55859,-4.40625 1.03555,-1.10967 2.25652,-1.85371 3.66016,-2.23242 0.75917,-0.20484 1.46449,-0.28745 2.11523,-0.25 z m -22.35156,5.33789 4.67578,17.57226 c 0.28931,1.08723 0.62479,1.77594 1.00586,2.06641 0.39456,0.28683 1.03543,0.38453 1.92187,0.29102 l 0.50977,1.91601 -10.87109,2.9336 -0.50977,-1.91602 c 0.82761,-0.36896 1.33375,-0.77534 1.51953,-1.21875 0.19928,-0.44705 0.15455,-1.21551 -0.13476,-2.30273 l -3.3086,-12.4336 c -0.27123,-1.01927 -0.60445,-1.64422 -0.99805,-1.87305 -0.38009,-0.23246 -1.04002,-0.2358 -1.97851,-0.0117 l -0.51953,-1.95703 c 1.35856,-0.43939 2.76502,-0.91454 4.2207,-1.42383 1.45569,-0.50929 2.9446,-1.05708 4.4668,-1.64258 z m -18.21289,5.12695 c 1.92781,-0.0941 3.72636,0.4861 5.39453,1.74024 2.23772,1.66853 3.81835,4.24354 4.74414,7.72265 0.90771,3.41117 0.80289,6.41114 -0.31641,9 -1.10579,2.58523 -2.98767,4.23575 -5.64648,4.95313 -1.37664,0.37143 -2.65441,0.41122 -3.83203,0.11718 -1.16413,-0.29767 -2.126,-0.89901 -2.88672,-1.80078 l 1.82226,6.84961 c 0.31463,1.18236 0.71001,1.90689 1.18555,2.17188 0.48904,0.26133 1.30592,0.23725 2.45313,-0.0723 l 0.48632,-0.13086 0.52149,1.95704 -11.98633,3.23243 -0.51953,-1.95704 c 0.84111,-0.37261 1.36127,-0.78147 1.56055,-1.22852 0.19928,-0.44704 0.15932,-1.19377 -0.11914,-2.24023 l -5.73438,-21.54688 c -0.26399,-0.99209 -0.60101,-1.60889 -1.01172,-1.84767 -0.39721,-0.2424 -1.07145,-0.2492 -2.02344,-0.0215 l -0.52148,-1.95703 c 1.25421,-0.39666 2.53653,-0.8296 3.84375,-1.29883 1.32072,-0.47287 2.71917,-1.00363 4.19727,-1.5918 l 1.10156,4.13868 c 0.34018,-1.54839 0.95823,-2.81441 1.85351,-3.79883 0.90517,-1.00166 2.05926,-1.6916 3.46289,-2.07032 0.67146,-0.18116 1.3281,-0.28895 1.97071,-0.32031 z m -2.30469,3.33594 c -0.30008,-0.0201 -0.60808,0.013 -0.92188,0.0977 -1.26867,0.3423 -2.03081,1.3639 -2.2871,3.06445 -0.2428,1.6969 0.023,3.99793 0.79687,6.90625 0.77752,2.92191 1.69323,5.05697 2.74609,6.4043 1.06637,1.34367 2.23329,1.84425 3.50196,1.50195 1.25517,-0.33866 1.9995,-1.34767 2.23242,-3.02735 0.24641,-1.68331 -0.0219,-4.00012 -0.80664,-6.94921 -0.78114,-2.93551 -1.69684,-5.06862 -2.7461,-6.40235 -0.77681,-1.00303 -1.61538,-1.53544 -2.51562,-1.5957 z m -17.62695,2.50781 c 0.57024,0.0501 1.10712,0.20919 1.61328,0.48047 1.02219,0.52533 1.6887,1.36631 1.99609,2.52148 0.264,0.9921 0.16514,1.87718 -0.29297,2.65626 -0.44822,0.76184 -1.16319,1.27713 -2.14843,1.54296 -0.7828,0.21121 -1.49659,0.16983 -2.13868,-0.12304 -0.6322,-0.31011 -1.03539,-0.79103 -1.20898,-1.44336 -0.0181,-0.0679 -0.0309,-0.14529 -0.0391,-0.23047 -0.0118,-0.0988 -0.0176,-0.20626 -0.0195,-0.32227 l -0.0312,-0.93164 c 0.003,-0.0444 -0.003,-0.0921 -0.0176,-0.14648 -9.7e-4,-0.058 -0.0135,-0.1294 -0.0352,-0.21094 -0.0506,-0.19026 -0.15038,-0.32249 -0.30078,-0.39844 -0.1504,-0.076 -0.34087,-0.0834 -0.57031,-0.0215 -0.82329,0.22213 -1.37715,1.23858 -1.66211,3.04883 -0.27147,1.8066 -0.0874,3.91287 0.55273,6.31836 l 1.63281,6.1367 c 0.28932,1.08723 0.66015,1.80264 1.11329,2.14649 0.45313,0.34385 1.0787,0.40822 1.875,0.19336 l 1.0332,-0.2793 0.50977,1.91602 -11.82422,3.18945 -0.50977,-1.91602 c 0.82761,-0.36895 1.3357,-0.77534 1.52149,-1.21874 0.19928,-0.44706 0.15259,-1.21356 -0.13672,-2.30079 l -3.3086,-12.43554 c -0.28207,-1.06005 -0.60955,-1.6912 -0.98242,-1.89649 -0.36299,-0.22251 -1.0267,-0.21965 -1.99219,0.0117 l -0.52148,-1.95703 c 1.55378,-0.52119 2.98574,-1.01514 4.29297,-1.48437 1.30722,-0.46924 2.54999,-0.93676 3.72851,-1.4004 l 1.34375,5.05664 c 0.31919,-1.79034 0.86933,-3.20561 1.64844,-4.24609 0.77911,-1.04048 1.80359,-1.73191 3.07227,-2.07422 0.63433,-0.17115 1.23639,-0.2317 1.80664,-0.18164 z m -45.70313,2.30078 3.63086,11.60547 -2.18555,0.67774 c -1.65673,-2.80122 -3.41089,-4.77582 -5.26367,-5.92188 -1.83928,-1.1497 -3.74435,-1.45744 -5.71484,-0.92578 -2.41588,0.65183 -3.93659,2.27201 -4.56445,4.85938 -0.61437,2.58372 -0.33324,6.08909 0.8457,10.51953 0.7739,2.90832 1.55778,5.09376 2.35156,6.55468 0.80728,1.45727 1.81441,2.60572 3.02149,3.44532 0.89542,0.64693 1.86104,1.06468 2.89453,1.25195 1.03348,0.18727 2.0902,0.13507 3.16992,-0.15625 1.80853,-0.48797 3.23213,-1.57816 4.27148,-3.27149 1.03935,-1.69333 1.6679,-3.94721 1.88867,-6.75976 l 2.5586,0.0742 c -0.0113,3.38235 -0.82965,6.17538 -2.45703,8.37695 -1.631,2.18799 -4.01938,3.70622 -7.16407,4.55469 -1.37664,0.37143 -2.69505,0.58026 -3.95507,0.6289 -1.26002,0.0487 -2.43403,-0.0707 -3.52344,-0.35937 -2.818,-0.69627 -5.22442,-2.10192 -7.21875,-4.21484 -1.98446,-2.13016 -3.40688,-4.81239 -4.26758,-8.04688 -0.65456,-2.45984 -0.86494,-4.79865 -0.63086,-7.01758 0.24396,-2.23616 0.92555,-4.29831 2.04297,-6.1875 0.98898,-1.66517 2.20411,-3.04944 3.64649,-4.15234 1.45225,-1.12014 3.08812,-1.92637 4.91015,-2.41797 0.67483,-0.18207 1.4057,-0.29092 2.19141,-0.32812 0.79558,-0.0544 1.79185,-0.0387 2.98633,0.0469 0.33935,0.025 0.79226,0.0693 1.35937,0.13477 0.9713,0.11665 1.65956,0.12096 2.06445,0.0117 0.37791,-0.10197 0.63665,-0.34826 0.7793,-0.73633 0.15253,-0.40531 0.18216,-0.9509 0.0859,-1.63867 l 2.24609,-0.60743 z m 20.1543,4.44922 c 1.25267,0.0189 2.34132,0.26079 3.26758,0.72461 1.85251,0.92764 3.15599,2.80408 3.9082,5.63086 l 2.79883,10.51953 c 0.10126,0.38053 0.24409,0.64889 0.42969,0.80274 0.18197,0.14025 0.41579,0.17022 0.69921,0.0937 0.18896,-0.051 0.43089,-0.19502 0.72852,-0.43555 0.31113,-0.24418 0.52697,-0.38324 0.64844,-0.41602 0.16196,-0.0437 0.32508,-0.007 0.48633,0.10938 0.17112,0.0995 0.27915,0.23739 0.32617,0.41405 0.15912,0.59798 -0.17738,1.34366 -1.00977,2.23829 -0.83239,0.89463 -1.81551,1.4949 -2.94922,1.80078 -1.03923,0.2804 -1.96734,0.24834 -2.7832,-0.0996 -0.81586,-0.34794 -1.57045,-1.0402 -2.26562,-2.07618 -0.9208,1.48655 -1.92331,2.69592 -3.00586,3.62892 -1.07268,0.91575 -2.22299,1.53971 -3.45118,1.87108 -1.68706,0.4552 -3.21621,0.30619 -4.58789,-0.4453 -1.37168,-0.75149 -2.27277,-1.93549 -2.70312,-3.55273 -0.60755,-2.28318 -0.0352,-4.34559 1.71679,-6.1875 1.76552,-1.84557 4.76372,-3.52036 8.99219,-5.02539 l -0.79883,-2.99806 c -0.50267,-1.88905 -1.1356,-3.10215 -1.90039,-3.63867 -0.7684,-0.55011 -1.86819,-0.6321 -3.29882,-0.2461 -0.63434,0.17115 -1.16,0.4226 -1.57813,0.75392 -0.42175,0.31772 -0.60474,0.58528 -0.54687,0.80273 0.007,0.0272 0.0703,0.0988 0.1875,0.21289 0.0586,0.057 0.0984,0.0976 0.11914,0.12109 l 0.83007,0.75781 c 0.1721,0.15749 0.33119,0.36953 0.47461,0.63672 0.15331,0.24996 0.26781,0.51929 0.34375,0.80469 0.21699,0.81541 0.0935,1.57572 -0.36914,2.2832 -0.4663,0.69389 -1.1845,1.1714 -2.15625,1.43359 -0.99874,0.26947 -1.88547,0.20407 -2.6582,-0.19922 -0.77273,-0.40328 -1.28143,-1.06804 -1.52734,-1.99218 -0.41227,-1.5493 0.0642,-3.04589 1.42968,-4.49219 1.36547,-1.4463 3.35026,-2.5218 5.95508,-3.22461 1.57909,-0.42606 2.99537,-0.63021 4.24805,-0.61133 z m 1.7168,11.36914 c -2.06277,0.89158 -3.50967,1.89282 -4.3418,3.00586 -0.83575,1.09946 -1.07482,2.32253 -0.7168,3.66797 0.24592,0.92414 0.69571,1.58101 1.34961,1.97266 0.65391,0.39164 1.43363,0.46663 2.33789,0.22265 1.21469,-0.32773 1.9853,-1.04639 2.3125,-2.15429 0.32359,-1.1215 0.21687,-2.68786 -0.31836,-4.69922 -0.0615,-0.23104 -0.13488,-0.47989 -0.2207,-0.74805 -0.0723,-0.27181 -0.20635,-0.69412 -0.40234,-1.26758 z m -87.0918,0.66602 7.37695,27.72461 c 0.27123,1.01927 0.58819,1.63881 0.95117,1.86133 0.37649,0.21887 1.02365,0.20465 1.94141,-0.043 l 0.56641,-0.15235 0.54296,2.03907 c -1.5251,0.41149 -2.95007,0.87529 -4.27343,1.39257 -1.31975,0.53088 -2.54398,1.12344 -3.67188,1.77735 l -1.33398,-5.01563 c -0.46404,1.844 -1.16032,3.30619 -2.08789,4.38672 -0.91408,1.07689 -2.10506,1.81401 -3.57617,2.21094 -2.68581,0.72466 -5.14072,0.2582 -7.36133,-1.40039 -2.22061,-1.65859 -3.79072,-4.22002 -4.71289,-7.68555 -0.91495,-3.43834 -0.82064,-6.44993 0.28515,-9.03516 1.11568,-2.60245 2.99727,-4.26088 5.64258,-4.9746 1.37664,-0.37144 2.65441,-0.41124 3.83203,-0.1172 1.19112,0.29039 2.16702,0.88729 2.92774,1.78906 l -2.02344,-7.60352 c -0.264,-0.99209 -0.67141,-1.59655 -1.2207,-1.8125 -0.5358,-0.21958 -1.48451,-0.14513 -2.84766,0.22266 l -0.38477,0.10352 -0.50195,-1.96289 c 1.69694,-0.47242 3.37409,-1.01872 5.03125,-1.64063 1.67066,-0.62555 3.30443,-1.31392 4.89844,-2.06445 z m 20.78516,5.30469 c 1.70747,0.0377 3.29162,0.5258 4.75195,1.46093 2.35002,1.49258 3.96497,3.88897 4.84375,7.19141 l 0.0762,0.28516 -13.05859,3.52343 c 0.0371,0.19391 0.079,0.4079 0.12695,0.64258 l 0.25586,0.95899 c 0.73051,2.74523 1.64702,4.66878 2.75,5.76953 1.09936,1.08715 2.45251,1.41381 4.05859,0.98047 1.24168,-0.33502 2.29127,-1.06327 3.15039,-2.1836 0.85551,-1.13392 1.46932,-2.58129 1.83985,-4.3418 l 2.12695,0.16993 c -0.27889,2.37668 -1.08408,4.31946 -2.41797,5.83007 -1.33389,1.51062 -3.18907,2.58566 -5.56445,3.22657 -1.39014,0.37507 -2.75669,0.48182 -4.10156,0.32031 -1.34488,-0.16151 -2.61178,-0.56897 -3.79883,-1.22461 -1.39603,-0.78862 -2.57987,-1.83922 -3.55078,-3.15039 -0.97454,-1.32476 -1.6956,-2.86404 -2.16211,-4.6172 -0.91133,-3.42475 -0.67272,-6.4751 0.71289,-9.15039 1.3991,-2.67891 3.64971,-4.43588 6.7539,-5.27344 1.11347,-0.30042 2.18255,-0.44061 3.20704,-0.41796 z m -1.95118,2.24023 c -0.25742,-0.002 -0.52658,0.0338 -0.80664,0.10937 -1.09321,0.29497 -1.73353,1.03712 -1.92383,2.22461 -0.18042,1.17027 0.0666,3.16462 0.74415,5.98243 l 6.25585,-1.68946 -0.10351,-0.38672 c -0.66903,-2.5142 -1.38635,-4.23511 -2.1543,-5.16406 -0.56855,-0.70963 -1.23946,-1.06877 -2.01172,-1.07617 z m -24.9414,7.53711 c -0.30008,-0.0201 -0.60613,0.013 -0.91992,0.0977 -1.25518,0.33866 -2.01129,1.35804 -2.26758,3.05859 -0.2428,1.6969 0.0252,4.00582 0.80273,6.92773 0.77391,2.90833 1.68737,5.03745 2.74024,6.38477 1.06636,1.34368 2.22724,1.84647 3.48242,1.50781 1.25517,-0.33866 1.9995,-1.34767 2.23242,-3.02734 0.24641,-1.68332 -0.0216,-3.99419 -0.80273,-6.92969 -0.78476,-2.94909 -1.70271,-5.0901 -2.75196,-6.42383 -0.77681,-1.00303 -1.61538,-1.53544 -2.51562,-1.5957 z m -27.11133,5.02344 c 0.57024,0.0501 1.10713,0.21114 1.61328,0.48242 1.02219,0.52533 1.68675,1.36436 1.99414,2.51953 0.264,0.99209 0.16709,1.87913 -0.29101,2.6582 -0.44823,0.76184 -1.1632,1.27519 -2.14844,1.54102 -0.7828,0.21121 -1.49659,0.16982 -2.13867,-0.12305 -0.63221,-0.3101 -1.0354,-0.79102 -1.20899,-1.44336 -0.0181,-0.0679 -0.0309,-0.14528 -0.0391,-0.23047 -0.0118,-0.0988 -0.0176,-0.2043 -0.0195,-0.32031 l -0.0312,-0.93164 c 0.003,-0.0444 -0.003,-0.0941 -0.0176,-0.14844 -9.7e-4,-0.058 -0.0135,-0.12744 -0.0352,-0.20898 -0.0506,-0.19027 -0.15038,-0.32444 -0.30078,-0.40039 -0.1504,-0.076 -0.34087,-0.0834 -0.57031,-0.0215 -0.82329,0.22214 -1.37714,1.23859 -1.66211,3.04883 -0.27147,1.80661 -0.0874,3.91288 0.55273,6.31836 l 1.63282,6.13672 c 0.28931,1.08722 0.66014,1.80263 1.11328,2.14648 0.45313,0.34386 1.0787,0.40821 1.875,0.19336 l 1.0332,-0.27929 0.50977,1.91601 -11.82422,3.19141 -0.50977,-1.91602 c 0.82762,-0.36896 1.3357,-0.77534 1.52149,-1.21875 0.19928,-0.44705 0.15259,-1.21551 -0.13672,-2.30273 l -3.3086,-12.4336 c -0.28207,-1.06004 -0.60955,-1.69315 -0.98242,-1.89843 -0.36298,-0.22252 -1.0267,-0.2177 -1.99218,0.0137 l -0.52149,-1.95703 c 1.55378,-0.52119 2.98575,-1.0171 4.29297,-1.48633 1.30722,-0.46923 2.54999,-0.9348 3.72852,-1.39844 l 1.34374,5.05469 c 0.3192,-1.79035 0.86933,-3.20562 1.64844,-4.24609 0.77911,-1.04048 1.8036,-1.73192 3.07227,-2.07422 0.63433,-0.17115 1.23639,-0.23171 1.80664,-0.18164 z m -46.3418,1.44726 7.25195,27.25586 c 0.28208,1.06004 0.62135,1.7406 1.01954,2.04102 0.41167,0.29677 1.06881,0.39598 1.96875,0.29883 l 0.50976,1.91601 -10.87109,2.9336 -0.50977,-1.91602 c 0.82762,-0.36896 1.33375,-0.77534 1.51953,-1.21875 0.19928,-0.44705 0.15455,-1.21356 -0.13476,-2.30078 l -5.79883,-21.79297 c -0.26038,-0.97851 -0.60538,-1.59113 -1.0332,-1.83984 -0.41795,-0.26596 -1.08868,-0.28881 -2.01367,-0.0684 l -0.50586,-1.89649 c 1.29469,-0.40759 2.64419,-0.88673 4.04492,-1.43945 1.40073,-0.55273 2.91824,-1.2112 4.55273,-1.97266 z m -13.36133,3.60547 7.25196,27.25586 c 0.28207,1.06004 0.62135,1.7406 1.01953,2.04102 0.41168,0.29677 1.06881,0.39598 1.96875,0.29882 l 0.50976,1.91602 -10.87109,2.93359 -0.51172,-1.91601 c 0.82761,-0.36896 1.3357,-0.77534 1.52149,-1.21875 0.19928,-0.44705 0.15454,-1.21356 -0.13477,-2.30078 l -5.79883,-21.79297 c -0.26038,-0.9785 -0.60538,-1.59113 -1.0332,-1.83985 -0.41794,-0.26595 -1.08868,-0.2888 -2.01367,-0.0684 l -0.50586,-1.89648 c 1.29469,-0.40759 2.64224,-0.88868 4.04297,-1.44141 1.40073,-0.55272 2.92019,-1.20924 4.55468,-1.9707 z m 34.34766,1.55859 c 1.70748,0.0377 3.29163,0.5258 4.75195,1.46094 2.35002,1.49258 3.96497,3.88897 4.84375,7.19141 l 0.0762,0.28515 -13.0586,3.52344 c 0.0371,0.19391 0.079,0.4079 0.12695,0.64258 l 0.25586,0.95898 c 0.73051,2.74524 1.64703,4.66879 2.75,5.76954 1.09936,1.08715 2.45251,1.4138 4.0586,0.98046 1.24168,-0.33501 2.29127,-1.06326 3.15039,-2.18359 0.8555,-1.13392 1.46931,-2.58129 1.83984,-4.3418 l 2.12696,0.16797 c -0.2789,2.37668 -1.08409,4.32142 -2.41797,5.83203 -1.33389,1.51062 -3.18907,2.58566 -5.56446,3.22657 -1.39014,0.37507 -2.75668,0.48182 -4.10156,0.32031 -1.34487,-0.16152 -2.61177,-0.56897 -3.79883,-1.22461 -1.39602,-0.78862 -2.57986,-1.83922 -3.55078,-3.15039 -0.97453,-1.32476 -1.6956,-2.86404 -2.16211,-4.61719 -0.91133,-3.42475 -0.67271,-6.4751 0.71289,-9.15039 1.3991,-2.67893 3.64971,-4.43589 6.75391,-5.27344 1.11346,-0.30042 2.18254,-0.44061 3.20703,-0.41797 z m -1.95117,2.24024 c -0.25742,-0.002 -0.52659,0.0338 -0.80664,0.10937 -1.09322,0.29497 -1.73548,1.03712 -1.92578,2.22461 -0.18042,1.17027 0.0686,3.16462 0.74609,5.98243 l 6.25586,-1.68946 -0.10352,-0.38672 c -0.66903,-2.5142 -1.38634,-4.23511 -2.15429,-5.16406 -0.56856,-0.70963 -1.23947,-1.06877 -2.01172,-1.07617 z m -63.75781,6.45508 3.53125,11.39062 -2.16602,0.58594 c -1.17835,-3.17792 -2.54697,-5.35925 -4.10547,-6.54102 -1.56212,-1.19535 -3.44265,-1.49591 -5.64258,-0.90234 l -0.58789,0.1582 6.03711,22.68946 c 0.35441,1.33185 0.83395,2.14933 1.43555,2.45312 0.61148,0.28657 1.84114,0.26035 3.68945,-0.0781 l 0.56446,2.12109 -15.87305,4.28125 -0.56445,-2.11914 c 1.76875,-0.63746 2.84107,-1.23276 3.21484,-1.78516 0.38365,-0.56962 0.39737,-1.51971 0.043,-2.85156 l -6.03711,-22.68945 -0.58789,0.1582 c -2.19993,0.59357 -3.67822,1.80136 -4.4375,3.62305 -0.7629,1.8081 -0.87214,4.38726 -0.32813,7.73633 l -2.10547,0.56836 -2.66015,-11.62696 26.58008,-7.17187 z m 15.71289,4.88086 c 1.25267,0.0189 2.34132,0.26079 3.26757,0.72461 1.85252,0.92764 3.156,2.80603 3.90821,5.63281 l 2.79883,10.51757 c 0.10125,0.38053 0.24409,0.64888 0.42968,0.80273 0.18198,0.14026 0.4158,0.17218 0.69922,0.0957 0.18895,-0.051 0.43088,-0.19696 0.72852,-0.4375 0.31113,-0.24417 0.52892,-0.38324 0.65039,-0.41601 0.16196,-0.0437 0.32312,-0.007 0.48437,0.10937 0.17113,0.0995 0.27916,0.23739 0.32618,0.41407 0.15912,0.59797 -0.17738,1.34561 -1.00977,2.24023 -0.83239,0.89463 -1.81551,1.4949 -2.94922,1.80078 -1.03923,0.2804 -1.96539,0.2464 -2.78125,-0.10155 -0.81586,-0.34795 -1.5724,-1.0402 -2.26758,-2.07618 -0.92079,1.48655 -1.92135,2.69592 -3.0039,3.62891 -1.07268,0.91576 -2.22299,1.53972 -3.45118,1.87109 -1.68706,0.4552 -3.21816,0.30619 -4.58984,-0.44532 -1.37168,-0.75149 -2.27082,-1.93548 -2.70117,-3.55273 -0.60755,-2.28317 -0.0372,-4.34558 1.71484,-6.1875 1.76552,-1.84556 4.76372,-3.52035 8.99219,-5.02539 l -0.79688,-2.99805 c -0.50267,-1.88905 -1.13755,-3.1002 -1.90234,-3.63672 -0.7684,-0.55011 -1.8682,-0.63209 -3.29883,-0.24609 -0.63433,0.17115 -1.15999,0.42065 -1.57812,0.75195 -0.42175,0.31772 -0.60279,0.58529 -0.54492,0.80274 0.007,0.0272 0.0684,0.0988 0.18554,0.21289 0.0586,0.057 0.0984,0.0975 0.11914,0.12109 l 0.83203,0.75781 c 0.1721,0.1575 0.32923,0.37149 0.47266,0.63868 0.15331,0.24995 0.26781,0.51734 0.34375,0.80273 0.21698,0.81542 0.0936,1.57572 -0.36914,2.2832 -0.4663,0.69389 -1.1845,1.17336 -2.15625,1.43555 -0.99874,0.26947 -1.88548,0.20211 -2.6582,-0.20117 -0.77273,-0.40328 -1.28143,-1.06805 -1.52735,-1.99219 -0.41226,-1.54929 0.0642,-3.04588 1.42969,-4.49219 1.36547,-1.4463 3.35025,-2.52179 5.95508,-3.22461 1.57909,-0.42605 2.99537,-0.63021 4.24805,-0.61132 z m 1.71875,11.36914 c -2.06277,0.89157 -3.51163,1.89281 -4.34375,3.00586 -0.83575,1.09945 -1.07482,2.32253 -0.7168,3.66797 0.24591,0.92414 0.6957,1.58296 1.34961,1.97461 0.6539,0.39164 1.43362,0.46468 2.33789,0.2207 1.21469,-0.32774 1.9853,-1.04639 2.3125,-2.15431 0.32359,-1.12149 0.21882,-2.68785 -0.31641,-4.69922 -0.0615,-0.23103 -0.13488,-0.47987 -0.2207,-0.74803 -0.0723,-0.27181 -0.20635,-0.69412 -0.40234,-1.26758 z"
           id="path4306-5"
           inkscape:connector-curvature="0" />
        <path
           style="opacity:1;fill:url(#linearGradient4189);fill-opacity:1;fill-rule:evenodd;stroke:none;stroke-width:1px;stroke-linecap:butt;stroke-linejoin:miter;stroke-opacity:1"
           d="m 341.70889,727.42642 c -146.72022,0 -265.774729,-118.67013 -265.774729,-265.00411 0,-146.334 119.054499,-265.00218 265.774729,-265.00218 146.7203,0 265.77291,118.66818 265.77291,265.00218 0,146.33398 -119.0526,265.00411 -265.77291,265.00411 z m 0,-7.33515 c 142.8225,0 258.4883,-115.33886 258.4883,-257.66896 0,-142.33012 -115.6658,-257.66702 -258.4883,-257.66702 -142.82243,0 -258.490199,115.3369 -258.490199,257.66702 0,142.3301 115.667769,257.66896 258.490199,257.66896 z"
           id="path4187"
           inkscape:connector-curvature="0" />
      </g>
    </g>
  </g>
</svg>
